<svg id="Capa_1" enable-background="new 0 0 510.513 510.513" viewBox="0 0 510.513 510.513" xmlns="http://www.w3.org/2000/svg">
    <g>
        <path d="m508.934 374.044-21.002-114.24c-6.75-52.217-51.437-91.535-104.128-91.535h-257.1c-52.691 0-97.377 39.318-104.128 91.536l-21.002 114.239c-10.442 56.8 32.377 109.844 89.812 112.149 54.727 2.191 98.696-42.488 98.868-95.801.002-.19-6.175-.124 130.001-.124 0 53.13 43.973 98.129 98.868 95.925 57.175-2.295 100.305-55.077 89.811-112.149zm-325.68-71.775h-25v25c0 8.284-6.716 15-15 15s-15-6.716-15-15v-25h-25c-8.284 0-15-6.716-15-15s6.716-15 15-15h25v-25c0-8.284 6.716-15 15-15s15 6.716 15 15v25h25c8.284 0 15 6.716 15 15s-6.716 15-15 15zm159-14c0 8.284-6.716 15-15 15s-15-6.716-15-15v-1c0-8.284 6.716-15 15-15s15 6.716 15 15zm39.93 40.48c-.816 7.863-7.596 14.17-16.41 13.45-8.393-.876-14.286-8.343-13.45-16.4.895-8.633 8.834-14.936 17.86-13.24 7.967 1.656 12.74 8.911 12 16.19zm0-80.01c-.86 8.461-8.404 14.277-16.41 13.46-8.412-.878-14.269-8.35-13.45-16.41.917-8.667 8.867-14.92 17.86-13.23 7.988 1.66 12.75 8.952 12 16.18zm40.07 39.53c0 8.284-6.716 15-15 15s-15-6.716-15-15v-1c0-8.284 6.716-15 15-15s15 6.716 15 15z"/>
        <path d="m216.363 104.378c-5.858 5.858-5.858 15.355 0 21.213 5.857 5.857 15.355 5.857 21.213 0 9.77-9.77 25.584-9.772 35.355 0 5.858 5.858 15.355 5.858 21.213 0s5.858-15.355 0-21.213c-21.443-21.445-56.336-21.444-77.781 0z"/>
        <path d="m192.321 80.336c34.781-34.781 91.08-34.787 125.865 0 5.857 5.858 15.355 5.858 21.213 0s5.858-15.355 0-21.213c-46.504-46.505-121.78-46.511-168.291 0-5.858 5.858-5.858 15.355 0 21.213s15.356 5.858 21.213 0z"/>
    </g>
</svg>