<?xml version="1.0" encoding="utf-8"?>
<!-- Generator: Adobe Illustrator 24.0.0, SVG Export Plug-In . SVG Version: 6.00 Build 0)  -->
<svg version="1.1" id="Vrstva_1" xmlns="http://www.w3.org/2000/svg" xmlns:xlink="http://www.w3.org/1999/xlink" x="0px" y="0px"
	 viewBox="0 0 200 200" style="enable-background:new 0 0 200 200;" xml:space="preserve">
<style type="text/css">
	.st0{fill:#232526;}
	.st1{fill:#18191A;}
	.st2{fill:#E72E4C;}
	.st3{fill:#B0B4B9;}
	.st4{fill:#727377;}
	.st5{fill:#2d88ff;}
</style>
<rect x="18.35" y="-89.72" class="st0" width="31.45" height="31.45"/>
<rect x="62.81" y="-89.72" class="st1" width="36.38" height="36.38"/>
<rect x="173.46" y="-92.18" class="st2" width="36.38" height="36.38"/>
<rect x="-73.61" y="-92.18" class="st3" width="36.38" height="36.38"/>
<rect x="-24.35" y="-92.18" class="st4" width="36.38" height="36.38"/>
<rect x="120.16" y="-87.44" class="st5" width="31.83" height="31.83"/>
<path class="st5" d="M198.78,83.92L102.49,0.91c-1.41-1.22-3.57-1.22-4.98,0L1.22,83.92c-2.51,2.16-0.9,6.13,2.49,6.13h23.85v106.43
	c0,1.94,1.66,3.52,3.71,3.52h40.38v-68.29c0-1.39,1.19-2.52,2.65-2.52h51.42c1.46,0,2.65,1.13,2.65,2.52V200h40.38
	c2.05,0,3.71-1.58,3.71-3.52V90.05h23.85C199.68,90.05,201.29,86.09,198.78,83.92z"/>
</svg>