<svg id="Capa_1" enable-background="new 0 0 512 512" height="512" viewBox="0 0 512 512" width="512" xmlns="http://www.w3.org/2000/svg">
    <g>
        <path d="m392.724 195.271c-24.187 27.63-66.97 27.598-91.129 0-24.187 27.63-66.98 27.598-91.139 0-24.187 27.63-66.98 27.598-91.139 0-19.447 22.216-51.467 26.889-76.094 12.432v46.776h46.345c20.68 0 37.507 16.826 37.507 37.507v100.648c0 20.68-16.826 37.507-37.507 37.507h-46.346v74.383c0 4.124 3.353 7.477 7.477 7.477h118.776v-220.016c0-20.68 16.826-37.507 37.507-37.507h98.036c20.68 0 37.507 16.826 37.507 37.507v220.015h118.775c4.124 0 7.477-3.353 7.477-7.477v-74.383h-46.345c-20.68 0-37.507-16.826-37.507-37.507v-100.648c0-20.68 16.826-37.507 37.507-37.507h46.345v-46.746c-24.709 14.468-56.685 9.664-76.053-12.461z"/>
        <path d="m504.523 69.228h-497.046c-4.124 0-7.477 3.353-7.477 7.477v23.062c0 4.124 3.353 7.477 7.477 7.477h497.045c4.124 0 7.477-3.353 7.477-7.477v-23.062c.001-4.124-3.352-7.477-7.476-7.477z"/>
        <path d="m446.026 7.477c0-4.124-3.353-7.477-7.477-7.477h-365.097c-4.124 0-7.477 3.353-7.477 7.477v31.711h380.051z"/>
        <path d="m95.343 176.993c10.835-10.815 8.959-21.699 8.959-39.739h-61.08v.01h-.02c0 20.09-.008 18.188.02 19.189.896 26.625 33.33 39.365 52.121 20.54z"/>
        <path d="m195.441 155.402c0-2.221 0-15.925 0-18.148h-61.11v18.148c0 16.846 13.713 30.55 30.56 30.55 16.846 0 30.55-13.704 30.55-30.55z"/>
        <path d="m286.58 155.402c0-2.595 0-15.511 0-18.148h-61.11v18.148c0 16.846 13.703 30.55 30.55 30.55s30.56-13.704 30.56-30.55z"/>
        <path d="m377.709 155.402c0-2.595 0-15.511 0-18.148h-61.1v18.148c0 16.846 13.703 30.55 30.55 30.55s30.55-13.704 30.55-30.55z"/>
        <path d="m468.778 137.254h-61.04v18.148c0 16.818 13.671 30.55 30.56 30.55 16.864 0 30.55-13.723 30.55-30.55 0-2.27 0-15.867 0-18.138h-.07z"/>
        <path d="m305.018 284.508h-98.036c-4.124 0-7.477 3.353-7.477 7.477v220.015h112.99v-220.015c0-4.124-3.353-7.477-7.477-7.477z"/>
        <path d="m97.045 392.633v-100.648c0-4.124-3.353-7.477-7.477-7.477h-46.346v115.603h46.345c4.125 0 7.478-3.354 7.478-7.478z"/>
        <path d="m414.955 291.985v100.648c0 4.124 3.353 7.477 7.477 7.477h46.345v-115.602h-46.345c-4.123 0-7.477 3.353-7.477 7.477z"/>
    </g>
</svg>